<svg width="132" height="24" viewBox="0 0 132 24" fill="none" xmlns="http://www.w3.org/2000/svg">
<path d="M7.90452 5.4162C8.29066 5.02471 8.8358 4.82677 9.53994 4.82677C9.91245 4.82677 10.2668 4.87516 10.5984 4.97633C10.7335 5.01754 10.8641 5.06532 10.9895 5.11967C11.2614 5.23749 11.6019 5.1326 11.7037 4.86034L12.6579 2.3089C12.7291 2.11855 12.6596 1.90316 12.4775 1.80515C12.0832 1.59288 11.6287 1.43223 11.1117 1.321C10.4576 1.18024 9.77616 1.10986 9.06748 1.10986C6.98686 1.10986 5.3878 1.6597 4.26572 2.75498C3.14364 3.85466 2.58032 5.31503 2.58032 7.14929V7.48833H0.454394C0.203439 7.48833 0 7.6864 0 7.93073V10.6705C0 10.9148 0.203439 11.1129 0.454394 11.1129H2.58942V23.3164C2.58942 23.5607 2.79286 23.7588 3.04381 23.7588H7.00039C7.25134 23.7588 7.45478 23.5607 7.45478 23.3164V11.1129H11.1798C11.4307 11.1129 11.6342 10.9148 11.6342 10.6705V7.93073C11.6342 7.6864 11.4307 7.48833 11.1798 7.48833H7.33213V7.18008C7.32759 6.39711 7.52292 5.81208 7.90452 5.4162Z" fill="white"/>
<path d="M19.2371 7.50586H15.2806C15.0296 7.50586 14.8262 7.70393 14.8262 7.94826V23.3079C14.8262 23.5522 15.0296 23.7503 15.2806 23.7503H19.2371C19.4881 23.7503 19.6915 23.5522 19.6915 23.3079V7.94826C19.6915 7.70393 19.4881 7.50586 19.2371 7.50586Z" fill="white"/>
<path d="M19.2824 0.733719C18.7614 0.246092 18.0892 0 17.2657 0C16.438 0 15.7657 0.259764 15.249 0.783849C14.7322 1.30793 14.4717 1.95051 14.4717 2.72068C14.4717 3.49086 14.7322 4.13799 15.249 4.66207C15.7657 5.18616 16.4422 5.44592 17.2657 5.44592C18.1102 5.44592 18.7908 5.1816 19.2992 4.6484C19.8076 4.1152 20.0639 3.44529 20.0639 2.62954C20.0639 1.8548 19.8034 1.22135 19.2824 0.733719Z" fill="white"/>
<path d="M28.5907 1.34424H24.6341C24.3831 1.34424 24.1797 1.54231 24.1797 1.78664V23.3044C24.1797 23.5488 24.3831 23.7468 24.6341 23.7468H28.5907C28.8416 23.7468 29.0451 23.5488 29.0451 23.3044V1.78664C29.0451 1.54231 28.8416 1.34424 28.5907 1.34424Z" fill="white"/>
<path d="M61.0203 10.3946C60.4298 9.33888 59.6166 8.55151 58.5899 8.04126C57.5632 7.52661 56.3821 7.27148 55.051 7.27148C53.452 7.27148 52.0301 7.64537 50.7944 8.38876C50.0903 8.81543 49.4952 9.32568 49.0091 9.9239C48.6184 9.30808 48.1232 8.80223 47.519 8.40635C46.3651 7.64977 45.0205 7.27588 43.4804 7.27588C42.1085 7.27588 40.8865 7.5618 39.8189 8.13803C39.2011 8.46793 38.6696 8.89021 38.2108 9.40046V7.96021C38.2108 7.71588 38.0073 7.51781 37.7564 7.51781H34.0179C33.7669 7.51781 33.5635 7.71588 33.5635 7.96021V23.3198C33.5635 23.5642 33.7669 23.7622 34.0179 23.7622H37.9744C38.2254 23.7622 38.4288 23.5642 38.4288 23.3198V15.6114C38.4288 14.6437 38.5833 13.8519 38.8968 13.2273C39.2102 12.6027 39.6463 12.1365 40.2051 11.8241C40.7684 11.5118 41.3999 11.3579 42.1085 11.3579C43.1261 11.3579 43.912 11.6702 44.4617 12.2948C45.0114 12.9194 45.2885 13.8871 45.2885 15.1936V23.3242C45.2885 23.5686 45.492 23.7666 45.7429 23.7666H49.6995C49.9504 23.7666 50.1539 23.5686 50.1539 23.3242V15.6158C50.1539 14.6481 50.3083 13.8563 50.6218 13.2317C50.9352 12.6071 51.3714 12.1409 51.9301 11.8285C52.4934 11.5162 53.1249 11.3623 53.8336 11.3623C54.8512 11.3623 55.6416 11.6746 56.2049 12.2992C56.7682 12.9238 57.0453 13.8915 57.0453 15.1979V23.3286C57.0453 23.573 57.2488 23.771 57.4997 23.771H61.4563C61.7073 23.771 61.9107 23.573 61.9107 23.3286V14.4722C61.9062 12.8051 61.6109 11.4503 61.0203 10.3946Z" fill="white"/>
<path d="M70.9728 0.733719C70.4518 0.246092 69.7796 0 68.9561 0C68.1284 0 67.4562 0.259764 66.9394 0.783849C66.4226 1.30793 66.1621 1.95051 66.1621 2.72068C66.1621 3.49086 66.4226 4.13799 66.9394 4.66207C67.4562 5.18616 68.1326 5.44592 68.9561 5.44592C69.8006 5.44592 70.4813 5.1816 70.9896 4.6484C71.498 4.1152 71.7543 3.44529 71.7543 2.62954C71.7501 1.8548 71.4938 1.22135 70.9728 0.733719Z" fill="#FEBB12"/>
<path d="M70.9373 7.50586H66.9808C66.7298 7.50586 66.5264 7.70393 66.5264 7.94826V23.3079C66.5264 23.5522 66.7298 23.7503 66.9808 23.7503H70.9374C71.1883 23.7503 71.3917 23.5522 71.3917 23.3079V7.94826C71.3917 7.70393 71.1883 7.50586 70.9373 7.50586Z" fill="#FEBB12"/>
<path d="M88.1422 9.20472C87.7561 8.79564 87.32 8.44815 86.8339 8.17103C85.7754 7.56841 84.5352 7.2649 83.1224 7.2649C81.5415 7.2649 80.1196 7.60799 78.8521 8.28979C77.5847 8.97599 76.5807 9.93931 75.8448 11.1885C75.1043 12.4378 74.7363 13.9157 74.7363 15.6268C74.7363 17.3159 75.1043 18.7851 75.8448 20.0343C76.5807 21.2836 77.5847 22.2513 78.8521 22.9463C80.1196 23.6413 81.5415 23.9888 83.1224 23.9888C84.5988 23.9888 85.8617 23.6853 86.9111 23.0826C87.4608 22.7659 87.9423 22.3569 88.3603 21.8686V23.3044C88.3603 23.5488 88.5637 23.7468 88.8147 23.7468H92.5532C92.8041 23.7468 93.0076 23.5488 93.0076 23.3044V1.78664C93.0076 1.54231 92.8041 1.34424 92.5532 1.34424H88.5966C88.3457 1.34424 88.1422 1.54231 88.1422 1.78664V9.20472ZM87.6561 18.0241C87.27 18.6971 86.7566 19.2162 86.1116 19.5813C85.4665 19.942 84.7487 20.1267 83.9583 20.1267C83.1496 20.1267 82.4182 19.9464 81.7777 19.5813C81.1372 19.2162 80.6193 18.7015 80.2331 18.0241C79.847 17.3511 79.6562 16.5506 79.6562 15.6224C79.6562 14.6767 79.847 13.8717 80.2331 13.2075C80.6193 12.5433 81.1326 12.0287 81.7777 11.668C82.4228 11.3073 83.1496 11.1226 83.9583 11.1226C84.7487 11.1226 85.4665 11.3029 86.1116 11.668C86.7566 12.0287 87.27 12.5433 87.6561 13.2075C88.0423 13.8717 88.2331 14.6767 88.2331 15.6224C88.2331 16.5506 88.0423 17.3511 87.6561 18.0241Z" fill="#FEBB12"/>
<path d="M109.633 8.28319C108.311 7.61019 106.83 7.27148 105.19 7.27148C103.486 7.27148 101.955 7.62778 100.606 8.34477C99.2521 9.05736 98.1891 10.0471 97.4077 11.3051C96.6264 12.5631 96.2402 14.0059 96.2402 15.6378C96.2402 17.2477 96.6355 18.6817 97.4259 19.9398C98.2164 21.1978 99.3339 22.1875 100.779 22.9133C102.223 23.6391 103.899 23.9998 105.812 23.9998C107.329 23.9998 108.669 23.7754 109.832 23.3224C110.858 22.9228 111.732 22.3726 112.451 21.6659C112.615 21.5046 112.61 21.2471 112.451 21.0806L110.455 18.9844C110.282 18.8034 109.992 18.7963 109.797 18.9535C109.329 19.3302 108.826 19.623 108.288 19.8342C107.611 20.0981 106.83 20.2257 105.935 20.2257C104.935 20.2257 104.068 20.0497 103.332 19.6978C102.596 19.3459 102.023 18.8313 101.619 18.1583C101.401 17.7932 101.242 17.3929 101.142 16.9662H113.418C113.65 16.9662 113.844 16.7962 113.865 16.5714C113.873 16.4884 113.881 16.403 113.889 16.3152C113.907 16.0821 113.921 15.8754 113.921 15.695C113.921 13.9443 113.535 12.44 112.767 11.1819C111.995 9.9239 110.95 8.96059 109.633 8.28319ZM103.023 11.3623C103.654 11.0104 104.39 10.8344 105.221 10.8344C106.053 10.8344 106.78 11.0104 107.402 11.3623C108.024 11.7142 108.515 12.2024 108.869 12.827C109.101 13.2405 109.251 13.7068 109.333 14.217H101.087C101.169 13.7112 101.315 13.2493 101.542 12.8446C101.896 12.2112 102.387 11.7186 103.023 11.3623Z" fill="#FEBB12"/>
<path d="M129.883 9.02217C128.47 7.85651 126.485 7.27148 123.927 7.27148C122.596 7.27148 121.288 7.44303 119.998 7.78613C118.86 8.08873 117.871 8.5008 117.023 9.01935C116.83 9.13756 116.769 9.3809 116.874 9.57827L118.183 12.0481C118.314 12.2948 118.643 12.3639 118.883 12.2131C119.391 11.8935 119.974 11.6291 120.634 11.4239C121.497 11.1511 122.374 11.0148 123.269 11.0148C124.577 11.0148 125.549 11.2963 126.185 11.8593C126.821 12.4224 127.135 13.2097 127.135 14.2126H123.269C121.565 14.2126 120.184 14.4194 119.121 14.8329C118.063 15.2463 117.286 15.8138 116.8 16.5396C116.309 17.2653 116.068 18.1099 116.068 19.0776C116.068 20.0057 116.318 20.8371 116.818 21.5849C117.318 22.3283 118.035 22.9177 118.971 23.3488C119.907 23.7798 121.029 23.9998 122.337 23.9998C123.814 23.9998 125.018 23.727 125.954 23.186C126.59 22.8165 127.085 22.3327 127.448 21.7344V23.3198C127.448 23.5642 127.652 23.7622 127.903 23.7622H131.546C131.797 23.7622 132 23.5642 132 23.3198V14.4942C132.005 12.0089 131.296 10.1878 129.883 9.02217ZM125.736 20.2653C125.09 20.6392 124.364 20.8239 123.555 20.8239C122.701 20.8239 122.033 20.648 121.542 20.2961C121.052 19.9442 120.811 19.4647 120.811 18.8621C120.811 18.3166 121.025 17.868 121.452 17.5029C121.879 17.1422 122.665 16.9574 123.805 16.9574H127.139V18.6201C126.848 19.3459 126.381 19.8958 125.736 20.2653Z" fill="#FEBB12"/>
</svg>
